# xmcd
#
# Track frame offsets:
#	150
#	1401
#	15666
#	31432
#	45637
#	56870
#	71372
#	79280
#	96915
#	113083
#	126913
#	146500
#	159688
#	177478
#
# Disc length: 2631 seconds
#
# Revision: 1
# Processed by: cddbd v1.5.1PL0 Copyright (c) Steve Scherf et al.
# Submitted via: CDmax 1.9
#
DISCID=bf0a450e
DTITLE=Alison Krauss and Union Station - So Long So Wrong
DYEAR=1997
DGENRE=Country
TTITLE0=So Long So Wrong
TTITLE1=No Place To Hide
TTITLE2=Deeper Than Crying
TTITLE3=I Can Let Go Now
TTITLE4=Road Is A Lover, The
TTITLE5=Little Liza Jane
TTITLE6=It Doesn't Matter
TTITLE7=Find My Way Back To My Heart
TTITLE8=I'll Remember You, Love, In My Prayers
TTITLE9=Looking In The Eyes Of Love
TTITLE10=Pain Of A Troubled Life
TTITLE11=Happiness
TTITLE12=Blue Trail Of Sorrow
TTITLE13=There Is A Reason
EXTD=
EXTT0=
EXTT1=
EXTT2=
EXTT3=
EXTT4=
EXTT5=
EXTT6=
EXTT7=
EXTT8=
EXTT9=
EXTT10=
EXTT11=
EXTT12=
EXTT13=
PLAYORDER=
